<svg width="1512" height="648" viewBox="0 0 1512 648" fill="none" xmlns="http://www.w3.org/2000/svg">
<rect x="-2" y="543" width="550" height="1516" transform="rotate(-90 -2 543)" fill="url(#paint0_linear_326_249)"/>
<path d="M217.411 430.437L365.316 423.038L297.772 554.828L217.411 430.437Z" fill="#646464" fill-opacity="0.2"/>
<path d="M1169.75 155.717L1283.3 60.6578L1308.85 206.528L1169.75 155.717Z" fill="white" fill-opacity="0.13"/>
<path d="M-44.6187 168.349L29.736 0.657004L137.784 148.896L-44.6187 168.349Z" fill="#414141" fill-opacity="0.2"/>
<circle cx="890.5" cy="436.434" r="211.5" transform="rotate(-90 890.5 436.434)" fill="#EAEAEA" fill-opacity="0.2"/>
<path d="M1492.5 279C1535.85 279 1571 314.146 1571 357.5C1571 400.854 1535.85 436 1492.5 436C1449.15 436 1414 400.854 1414 357.5C1414 314.146 1449.15 279 1492.5 279ZM1492.5 417.077C1525.4 417.077 1552.08 390.404 1552.08 357.5C1552.08 324.596 1525.4 297.923 1492.5 297.923C1459.6 297.923 1432.92 324.596 1432.92 357.5C1432.92 390.404 1459.6 417.077 1492.5 417.077Z" fill="#858585" fill-opacity="0.2"/>
<ellipse cx="549.5" cy="46.4343" rx="48.5" ry="47.5" transform="rotate(-90 549.5 46.4343)" fill="#EAEAEA" fill-opacity="0.2"/>
<ellipse cx="294.5" cy="205.5" rx="48.5" ry="47.5" transform="rotate(-90 294.5 205.5)" fill="#7D7D7D" fill-opacity="0.2"/>
<rect x="-34" y="421.552" width="47" height="47" transform="rotate(-42.9836 -34 421.552)" fill="white" fill-opacity="0.2"/>
<rect x="754.5" y="117.934" width="47" height="47" transform="rotate(-120 754.5 117.934)" fill="#616161" fill-opacity="0.2"/>
<rect x="508.5" y="280.203" width="47" height="47" transform="rotate(-120 508.5 280.203)" fill="white" fill-opacity="0.2"/>
<rect x="1254.5" y="386.203" width="47" height="47" transform="rotate(-120 1254.5 386.203)" fill="#616161" fill-opacity="0.2"/>
<defs>
<linearGradient id="paint0_linear_326_249" x1="68" y1="580.823" x2="528.645" y2="1974.5" gradientUnits="userSpaceOnUse">
<stop stop-color="#6C92CC"/>
<stop offset="1" stop-color="#AACCFF"/>
</linearGradient>
</defs>
</svg>
